<svg version="1.1" id="Layer_1" xmlns="http://www.w3.org/2000/svg" xmlns:xlink="http://www.w3.org/1999/xlink" x="0px" y="0px"
	 viewBox="0 0 52 52" style="enable-background:new 0 0 52 52;" xml:space="preserve">
<style type="text/css">
	.facebook0{fill:#424242;}
</style>
<path class="facebook0" d="M51.07,26.06C51.05,40.09,39.88,51.21,25.82,51.2C11.85,51.19,0.59,39.89,0.66,25.94
	C0.72,11.95,11.94,0.86,26.01,0.88C39.86,0.9,51.09,12.18,51.07,26.06z M18.09,19.94c0,2.3,0,4.37,0,6.51
	c1.09,0.06,2.09,0.11,3.21,0.18c0,0.69,0,1.27,0,1.85c0,5.37-0.02,10.75,0.03,16.12c0,0.5,0.44,1.4,0.72,1.42
	c1.91,0.13,3.82,0.07,5.91,0.07c0-0.79,0-1.37,0-1.95c0-4.73,0-9.46,0-14.19c0-3.36,0-3.33,3.26-3.52c0.45-0.03,1.21-0.44,1.26-0.76
	c0.27-1.84,0.36-3.7,0.54-5.79c-1.81,0-3.38,0-5.05,0c0-1.56-0.01-2.89,0-4.23c0.01-1.21,0.64-1.73,1.85-1.67
	c1,0.05,2,0.01,3.05,0.01c0-2.37,0-4.49,0-6.78c-1.65,0-3.19-0.06-4.73,0.01C24,7.43,21.98,9.3,21.53,13.44
	c-0.23,2.11-0.23,4.25-0.34,6.5C20.15,19.94,19.2,19.94,18.09,19.94z"/>
</svg>
