<?xml version="1.0" encoding="utf-8"?>
<!-- Generator: Adobe Illustrator 19.0.0, SVG Export Plug-In . SVG Version: 6.00 Build 0)  -->
<svg version="1.1" id="Layer_1" xmlns="http://www.w3.org/2000/svg" xmlns:xlink="http://www.w3.org/1999/xlink" x="0px" y="0px"
	 viewBox="0 0 96 96" style="enable-background:new 0 0 96 96;" xml:space="preserve">
<style type="text/css">
	.st0{fill:#333333;}
</style>
<g id="XMLID_2_">
	<path id="XMLID_4_" class="st0" d="M75.5,41.1c0,0.5-0.2,1-0.6,1.4L59.2,58.2c-0.4,0.4-0.8,0.6-1.4,0.6c-0.5,0-1-0.2-1.4-0.6
		s-0.6-0.8-0.6-1.4V49H49c-2,0-3.8,0.1-5.4,0.2s-3.2,0.3-4.7,0.7s-2.9,0.8-4.1,1.3s-2.2,1.3-3.2,2.1c-1,0.9-1.8,1.9-2.5,3.1
		S28,59,27.6,60.6c-0.4,1.6-0.5,3.5-0.5,5.6c0,1.1,0.1,2.4,0.2,3.8c0,0.1,0,0.4,0.1,0.7c0.1,0.4,0.1,0.6,0.1,0.8
		c0,0.3-0.1,0.6-0.3,0.8s-0.4,0.3-0.7,0.3c-0.3,0-0.6-0.2-0.9-0.5c-0.1-0.2-0.3-0.4-0.4-0.7c-0.1-0.3-0.3-0.6-0.4-0.9
		c-0.2-0.3-0.3-0.6-0.3-0.7c-2.6-5.8-3.9-10.4-3.9-13.8c0-4.1,0.5-7.5,1.6-10.2c3.3-8.2,12.3-12.4,26.9-12.4h6.9v-7.9
		c0-0.5,0.2-1,0.6-1.4c0.4-0.4,0.8-0.6,1.4-0.6c0.5,0,1,0.2,1.4,0.6l15.7,15.7C75.3,40.1,75.5,40.6,75.5,41.1z"/>
</g>
</svg>
